<svg width="16" height="20" viewBox="0 0 16 20" fill="none" xmlns="http://www.w3.org/2000/svg">
<path fill-rule="evenodd" clip-rule="evenodd" d="M0.728597 3.71942C0.837836 3.48397 1.07379 3.33333 1.33334 3.33333H14.6667C14.9262 3.33333 15.1622 3.48397 15.2714 3.71942C15.3807 3.95486 15.3433 4.2323 15.1757 4.43048L10 10.5508V16C10 16.2311 9.88037 16.4456 9.68383 16.5671C9.48729 16.6886 9.24186 16.6996 9.0352 16.5963L6.36853 15.263C6.14268 15.15 6.00001 14.9192 6.00001 14.6667V10.5508L0.824296 4.43048C0.656697 4.2323 0.619358 3.95486 0.728597 3.71942ZM2.77021 4.66667L7.17572 9.87618C7.2775 9.99653 7.33334 10.1491 7.33334 10.3067V14.2546L8.66668 14.9213V10.3067C8.66668 10.1491 8.72252 9.99653 8.8243 9.87618L13.2298 4.66667H2.77021Z" fill="#ABB1BA"/>
</svg>
